<?xml version="1.0" encoding="UTF-8"?>
<svg version="1.1" xmlns="http://www.w3.org/2000/svg" width="1080" height="1080">
<path d="M0 0 C356.4 0 712.8 0 1080 0 C1080 356.4 1080 712.8 1080 1080 C723.6 1080 367.2 1080 0 1080 C0 723.6 0 367.2 0 0 Z " fill="#1D6944" transform="translate(0,0)"/>
<path d="M0 0 C99.33 0 198.66 0 301 0 C299.68185021 3.95444938 298.6005764 7.03010184 296.70703125 10.59765625 C296.24965576 11.46600098 295.79228027 12.3343457 295.32104492 13.22900391 C294.8232251 14.16405762 294.32540527 15.09911133 293.8125 16.0625 C292.7207528 18.13379772 291.62963638 20.20542801 290.5390625 22.27734375 C289.96188477 23.37159668 289.38470703 24.46584961 288.79003906 25.59326172 C286.04445627 30.81855663 283.33439233 36.06213733 280.62628174 41.30691528 C279.67891307 43.14162982 278.73090757 44.97601395 277.78271484 46.81030273 C276.49751303 49.29660465 275.21252084 51.78301468 273.92773438 54.26953125 C270.76577925 60.38877385 267.60174132 66.50693935 264.4375 72.625 C263.97142838 73.52620575 263.97142838 73.52620575 263.49594116 74.44561768 C258.42727397 84.24612638 253.34991666 94.04211298 248.26928711 103.83642578 C244.00694317 112.05456498 239.75195648 120.27648396 235.5 128.5 C230.09727114 138.94917266 224.68615499 149.39395855 219.26953125 159.8359375 C215.00712113 168.05424734 210.75204005 176.27632233 206.5 184.5 C201.09727114 194.94917266 195.68615499 205.39395855 190.26953125 215.8359375 C186.0071211 224.05424741 181.75207324 232.27633944 177.5 240.5 C169.76926938 255.45111292 162.02102636 270.39312027 154.27050781 285.33398438 C147.35657146 298.66271221 140.44889024 311.99463513 133.55252075 325.3324585 C128.46548001 335.17073791 123.36951758 345.00436114 118.26953125 354.8359375 C114.00712113 363.05424734 109.75204005 371.27632233 105.5 379.5 C100.09727114 389.94917266 94.68615499 400.39395855 89.26953125 410.8359375 C85.00712113 419.05424734 80.75204005 427.27632233 76.5 435.5 C71.09727114 445.94917266 65.68615499 456.39395855 60.26953125 466.8359375 C56.00712113 475.05424734 51.75204005 483.27632233 47.5 491.5 C42.10328844 501.93753489 36.69934063 512.37128202 31.28710938 522.80078125 C28.18483355 528.78047939 25.08851019 534.7631844 22 540.75 C21.32554171 542.0566514 20.65106267 543.36329209 19.9765625 544.66992188 C19.00412219 546.55372793 18.03206722 548.43772586 17.06152344 550.32250977 C16.16715925 552.05934588 15.27109762 553.79530759 14.375 555.53125 C13.81554688 556.61921875 13.25609375 557.7071875 12.6796875 558.828125 C11.55917451 560.94407045 10.39720969 563.03857378 9.1953125 565.109375 C8.35613281 566.55570313 8.35613281 566.55570313 7.5 568.03125 C6.9946875 568.87236328 6.489375 569.71347656 5.96875 570.58007812 C4.78893566 573.52723533 5.03477578 575.01326247 6 578 C7.35176372 579.79634298 7.35176372 579.79634298 9.125 581.3125 C11.63699975 583.6821192 13.99952657 586.06738359 16.25 588.6875 C19.26716719 592.18714213 22.36879723 595.60257089 25.5 599 C29.10032448 602.90963279 32.64418014 606.85866939 36.125 610.875 C38.54550075 613.61823418 41.02200642 616.30884568 43.5 619 C47.10012756 622.90981595 50.64417605 626.85866468 54.125 630.875 C56.54550075 633.61823418 59.02200642 636.30884568 61.5 639 C65.10012756 642.90981595 68.64417605 646.85866468 72.125 650.875 C74.54550075 653.61823418 77.02200642 656.30884568 79.5 659 C83.10012756 662.90981595 86.64417605 666.85866468 90.125 670.875 C92.54550075 673.61823418 95.02200642 676.30884568 97.5 679 C101.10012756 682.90981595 104.64417605 686.85866468 108.125 690.875 C110.54550075 693.61823418 113.02200642 696.30884568 115.5 699 C119.10012756 702.90981595 122.64417605 706.85866468 126.125 710.875 C128.54550075 713.61823418 131.02200642 716.30884568 133.5 719 C137.10012756 722.90981595 140.64417605 726.85866468 144.125 730.875 C146.54550075 733.61823418 149.02200642 736.30884568 151.5 739 C155.10012756 742.90981595 158.64417605 746.85866468 162.125 750.875 C164.54550075 753.61823418 167.02200642 756.30884568 169.5 759 C173.10012756 762.90981595 176.64417605 766.85866468 180.125 770.875 C182.54550075 773.61823418 185.02200642 776.30884568 187.5 779 C191.10012756 782.90981595 194.64417605 786.85866468 198.125 790.875 C200.54550075 793.61823418 203.02200642 796.30884568 205.5 799 C209.10012756 802.90981595 212.64417605 806.85866468 216.125 810.875 C218.54550075 813.61823418 221.02200642 816.30884568 223.5 819 C227.10012756 822.90981595 230.64417605 826.85866468 234.125 830.875 C236.54550075 833.61823418 239.02200642 836.30884568 241.5 839 C245.10012756 842.90981595 248.64417605 846.85866468 252.125 850.875 C254.54550075 853.61823418 257.02200642 856.30884568 259.5 859 C263.10012756 862.90981595 266.64417605 866.85866468 270.125 870.875 C272.54550075 873.61823418 275.02200642 876.30884568 277.5 879 C281.10012756 882.90981595 284.64417605 886.85866468 288.125 890.875 C290.54550075 893.61823418 293.02200642 896.30884568 295.5 899 C299.10012756 902.90981595 302.64417605 906.85866468 306.125 910.875 C308.54550075 913.61823418 311.02200642 916.30884568 313.5 919 C317.10012756 922.90981595 320.64417605 926.85866468 324.125 930.875 C326.54550075 933.61823418 329.02200642 936.30884568 331.5 939 C335.10012756 942.90981595 338.64417605 946.85866468 342.125 950.875 C344.54550075 953.61823418 347.02200642 956.30884568 349.5 959 C352.53888018 962.30028923 355.56156045 965.60949283 358.5 969 C361.86322638 972.87817013 365.33335671 976.65527811 368.80810547 980.43310547 C373.24223628 985.25584891 377.6251824 990.1234112 382 995 C383.49971128 996.66692647 384.99971321 998.33359149 386.5 1000 C440.5 1060 440.5 1060 442.7265625 1062.48046875 C444.29616055 1064.21997175 445.87488703 1065.95126606 447.4609375 1067.67578125 C448.25757813 1068.54589844 449.05421875 1069.41601562 449.875 1070.3125 C450.59429687 1071.09238281 451.31359375 1071.87226562 452.0546875 1072.67578125 C454 1075 454 1075 457 1080 C306.19 1080 155.38 1080 0 1080 C0 723.6 0 367.2 0 0 Z " fill="#FEFEFE" transform="translate(0,0)"/>
</svg>
